<svg xmlns="http://www.w3.org/2000/svg" version="1.1" xmlns:xlink="http://www.w3.org/1999/xlink" xmlns:svgjs="http://svgjs.dev/svgjs" viewBox="0 0 800 800" opacity="0.69"><defs><linearGradient gradientTransform="rotate(270)" x1="50%" y1="0%" x2="50%" y2="100%" id="sssquiggly-grad"><stop stop-color="#3B82F6" stop-opacity="1" offset="0%"></stop><stop stop-color="#2DD4BF" stop-opacity="1" offset="100%"></stop></linearGradient></defs><g stroke-width="1.5" stroke="#2dd4bf" fill="none" stroke-linecap="round" transform="matrix(1,0,0,1,-5,345.6026802062988)"><path d="M10,10C41.25,16.875,95.41666666666667,51.958333333333336,160,43C224.58333333333331,34.041666666666664,253.33333333333331,-29.041666666666668,320,-33C386.6666666666667,-36.958333333333336,413.3333333333333,17.541666666666664,480,24C546.6666666666666,30.458333333333336,573.3333333333334,-7.625,640,-2C706.6666666666666,3.625,766.6666666666666,39.95833333333333,800,51"></path><path d="M10,10C41.25,16.875,95.41666666666667,51.958333333333336,160,43C224.58333333333331,34.041666666666664,253.33333333333331,-29.041666666666668,320,-33C386.6666666666667,-36.958333333333336,413.3333333333333,17.541666666666664,480,24C546.6666666666666,30.458333333333336,573.3333333333334,-7.625,640,-2C706.6666666666666,3.625,766.6666666666666,39.95833333333333,800,51" transform="matrix(1,0,0,1,0,91)"></path><path d="M10,10C41.25,16.875,95.41666666666667,51.958333333333336,160,43C224.58333333333331,34.041666666666664,253.33333333333331,-29.041666666666668,320,-33C386.6666666666667,-36.958333333333336,413.3333333333333,17.541666666666664,480,24C546.6666666666666,30.458333333333336,573.3333333333334,-7.625,640,-2C706.6666666666666,3.625,766.6666666666666,39.95833333333333,800,51" transform="matrix(1,0,0,1,0,78)"></path><path d="M10,10C41.25,16.875,95.41666666666667,51.958333333333336,160,43C224.58333333333331,34.041666666666664,253.33333333333331,-29.041666666666668,320,-33C386.6666666666667,-36.958333333333336,413.3333333333333,17.541666666666664,480,24C546.6666666666666,30.458333333333336,573.3333333333334,-7.625,640,-2C706.6666666666666,3.625,766.6666666666666,39.95833333333333,800,51" transform="matrix(1,0,0,1,0,65)"></path><path d="M10,10C41.25,16.875,95.41666666666667,51.958333333333336,160,43C224.58333333333331,34.041666666666664,253.33333333333331,-29.041666666666668,320,-33C386.6666666666667,-36.958333333333336,413.3333333333333,17.541666666666664,480,24C546.6666666666666,30.458333333333336,573.3333333333334,-7.625,640,-2C706.6666666666666,3.625,766.6666666666666,39.95833333333333,800,51" transform="matrix(1,0,0,1,0,52)"></path><path d="M10,10C41.25,16.875,95.41666666666667,51.958333333333336,160,43C224.58333333333331,34.041666666666664,253.33333333333331,-29.041666666666668,320,-33C386.6666666666667,-36.958333333333336,413.3333333333333,17.541666666666664,480,24C546.6666666666666,30.458333333333336,573.3333333333334,-7.625,640,-2C706.6666666666666,3.625,766.6666666666666,39.95833333333333,800,51" transform="matrix(1,0,0,1,0,39)"></path><path d="M10,10C41.25,16.875,95.41666666666667,51.958333333333336,160,43C224.58333333333331,34.041666666666664,253.33333333333331,-29.041666666666668,320,-33C386.6666666666667,-36.958333333333336,413.3333333333333,17.541666666666664,480,24C546.6666666666666,30.458333333333336,573.3333333333334,-7.625,640,-2C706.6666666666666,3.625,766.6666666666666,39.95833333333333,800,51" transform="matrix(1,0,0,1,0,26)"></path><path d="M10,10C41.25,16.875,95.41666666666667,51.958333333333336,160,43C224.58333333333331,34.041666666666664,253.33333333333331,-29.041666666666668,320,-33C386.6666666666667,-36.958333333333336,413.3333333333333,17.541666666666664,480,24C546.6666666666666,30.458333333333336,573.3333333333334,-7.625,640,-2C706.6666666666666,3.625,766.6666666666666,39.95833333333333,800,51" transform="matrix(1,0,0,1,0,13)"></path></g></svg>